<svg width="33" height="33" viewBox="0 0 33 33" fill="none" xmlns="http://www.w3.org/2000/svg">
<path d="M33 16.5C33 25.6127 25.6127 33 16.5 33C7.3873 33 0 25.6127 0 16.5C0 7.3873 7.3873 0 16.5 0C25.6127 0 33 7.3873 33 16.5Z" fill="#020246"/>
<path fill-rule="evenodd" clip-rule="evenodd" d="M8.00002 13.5999C7.77911 13.5999 7.60002 13.779 7.60002 13.9999V15.9999C7.60002 16.2208 7.77911 16.3999 8.00002 16.3999H24C24.2209 16.3999 24.4 16.2208 24.4 15.9999V13.9999C24.4 13.779 24.2209 13.5999 24 13.5999H8.00002ZM6.40002 13.9999C6.40002 13.1162 7.11637 12.3999 8.00002 12.3999H24C24.8837 12.3999 25.6 13.1162 25.6 13.9999V15.9999C25.6 16.8836 24.8837 17.5999 24 17.5999H8.00002C7.11637 17.5999 6.40002 16.8836 6.40002 15.9999V13.9999Z" fill="#EFF0F7"/>
<path fill-rule="evenodd" clip-rule="evenodd" d="M16 12.3999C16.3314 12.3999 16.6 12.6685 16.6 12.9999V25.9999C16.6 26.3313 16.3314 26.5999 16 26.5999C15.6687 26.5999 15.4 26.3313 15.4 25.9999V12.9999C15.4 12.6685 15.6687 12.3999 16 12.3999Z" fill="#EFF0F7"/>
<path fill-rule="evenodd" clip-rule="evenodd" d="M9.00002 16.3999C9.3314 16.3999 9.60002 16.6685 9.60002 16.9999V23.9999C9.60002 24.3712 9.74752 24.7273 10.0101 24.9899C10.2726 25.2524 10.6287 25.3999 11 25.3999H21C21.3713 25.3999 21.7274 25.2524 21.99 24.9899C22.2525 24.7273 22.4 24.3712 22.4 23.9999V16.9999C22.4 16.6685 22.6686 16.3999 23 16.3999C23.3314 16.3999 23.6 16.6685 23.6 16.9999V23.9999C23.6 24.6895 23.3261 25.3508 22.8385 25.8384C22.3509 26.326 21.6896 26.5999 21 26.5999H11C10.3105 26.5999 9.64914 26.326 9.16155 25.8384C8.67395 25.3508 8.40002 24.6895 8.40002 23.9999V16.9999C8.40002 16.6685 8.66865 16.3999 9.00002 16.3999Z" fill="#EFF0F7"/>
<path fill-rule="evenodd" clip-rule="evenodd" d="M13.7668 9.74439C13.0496 8.94757 12.2603 8.5867 11.5105 8.59976L11.5 8.59995C10.9961 8.59995 10.5128 8.80003 10.1565 9.15635C9.8002 9.51267 9.60002 9.99594 9.60002 10.4999C9.60002 11.0038 9.8002 11.487 10.1565 11.8434C10.5128 12.1997 10.9961 12.3999 11.5 12.3999C11.8314 12.3999 12.1 12.6685 12.1 12.9999C12.1 13.3312 11.8314 13.5999 11.5 13.5999C10.6779 13.5999 9.88936 13.2732 9.30799 12.6919C8.72663 12.1105 8.40002 11.322 8.40002 10.4999C8.40002 9.67768 8.72663 8.88919 9.30799 8.30782C9.88812 7.7277 10.6745 7.40125 11.4948 7.39986C12.6723 7.38109 13.7718 7.95611 14.6587 8.94164C15.1914 9.53344 15.6426 10.2659 16 11.0955C16.3575 10.2659 16.8087 9.53344 17.3413 8.94164C18.2283 7.95611 19.3277 7.38109 20.5053 7.39986C21.3256 7.40125 22.1119 7.7277 22.6921 8.30782C23.2734 8.88919 23.6 9.67768 23.6 10.4999C23.6 11.322 23.2734 12.1105 22.6921 12.6919C22.1107 13.2732 21.3222 13.5999 20.5 13.5999C20.1687 13.5999 19.9 13.3312 19.9 12.9999C19.9 12.6685 20.1687 12.3999 20.5 12.3999C21.0039 12.3999 21.4872 12.1997 21.8435 11.8434C22.1998 11.487 22.4 11.0038 22.4 10.4999C22.4 9.99594 22.1998 9.51267 21.8435 9.15635C21.4872 8.80003 21.0039 8.59986 20.5 8.59986H20.4896C19.7397 8.58679 18.9504 8.94757 18.2333 9.74439C17.5131 10.5446 16.9277 11.7212 16.5831 13.1414C16.5178 13.4104 16.2769 13.5999 16 13.5999C15.7232 13.5999 15.4822 13.4104 15.4169 13.1414C15.0723 11.7212 14.487 10.5446 13.7668 9.74439Z" fill="#EFF0F7"/>
</svg>
