<svg width="33" height="33" viewBox="0 0 33 33" fill="none" xmlns="http://www.w3.org/2000/svg">
<circle cx="16.5" cy="16.5" r="16.5" fill="#020246"/>
<path d="M24 13H8C7.44772 13 7 13.4477 7 14V16C7 16.5523 7.44772 17 8 17H24C24.5523 17 25 16.5523 25 16V14C25 13.4477 24.5523 13 24 13Z" stroke="#EFF0F7" stroke-width="1.2" stroke-linecap="round" stroke-linejoin="round"/>
<path d="M16 13V26" stroke="#EFF0F7" stroke-width="1.2" stroke-linecap="round" stroke-linejoin="round"/>
<path d="M23 17V24C23 24.5304 22.7893 25.0391 22.4142 25.4142C22.0391 25.7893 21.5304 26 21 26H11C10.4696 26 9.96086 25.7893 9.58579 25.4142C9.21071 25.0391 9 24.5304 9 24V17" stroke="#EFF0F7" stroke-width="1.2" stroke-linecap="round" stroke-linejoin="round"/>
<path d="M11.5 12.9999C10.837 12.9999 10.2011 12.7366 9.73223 12.2677C9.26339 11.7989 9 11.163 9 10.4999C9 9.83691 9.26339 9.20102 9.73223 8.73218C10.2011 8.26334 10.837 7.99995 11.5 7.99995C12.4647 7.98314 13.41 8.45121 14.2127 9.34311C15.0154 10.235 15.6383 11.5094 16 12.9999C16.3617 11.5094 16.9846 10.235 17.7873 9.34311C18.59 8.45121 19.5353 7.98314 20.5 7.99995C21.163 7.99995 21.7989 8.26334 22.2678 8.73218C22.7366 9.20102 23 9.83691 23 10.4999C23 11.163 22.7366 11.7989 22.2678 12.2677C21.7989 12.7366 21.163 12.9999 20.5 12.9999" stroke="#EFF0F7" stroke-width="1.2" stroke-linecap="round" stroke-linejoin="round"/>
</svg>
